<?xml version="1.0" standalone="no"?>
<!DOCTYPE svg PUBLIC "-//W3C//DTD SVG 20010904//EN"
 "http://www.w3.org/TR/2001/REC-SVG-20010904/DTD/svg10.dtd">
<svg version="1.0" xmlns="http://www.w3.org/2000/svg"
 width="260.000000pt" height="260.000000pt" viewBox="0 0 260.000000 260.000000"
 preserveAspectRatio="xMidYMid meet">
<metadata>
Created by potrace 1.11, written by Peter Selinger 2001-2013
</metadata>
<g transform="translate(0.000000,260.000000) scale(0.100000,-0.100000)"
fill="#000000" stroke="none">
<path d="M2080 1457 c0 -657 -1 -679 -51 -752 -63 -93 -267 -114 -368 -38 -53
41 -82 116 -88 234 l-6 99 -103 0 -104 0 0 -82 c1 -310 164 -478 465 -478 193
0 347 79 416 212 47 91 49 124 49 791 l0 627 -105 0 -105 0 0 -613z"/>
<path d="M632 1363 l-563 -256 3 -69 3 -69 560 -253 560 -253 3 70 c2 39 -1
73 -5 78 -4 4 -214 100 -465 215 -252 114 -458 210 -458 213 0 4 209 101 465
216 l464 210 1 78 c0 42 -1 77 -2 76 -2 0 -256 -116 -566 -256z"/>
</g>
</svg>
